<?xml version="1.0" standalone="no"?>
<!DOCTYPE svg PUBLIC "-//W3C//DTD SVG 20010904//EN"
 "http://www.w3.org/TR/2001/REC-SVG-20010904/DTD/svg10.dtd">
<svg version="1.0" xmlns="http://www.w3.org/2000/svg"
 width="517.000000pt" height="517.000000pt" viewBox="0 0 517.000000 517.000000"
 preserveAspectRatio="xMidYMid meet">
<metadata>
Created by potrace 1.11, written by Peter Selinger 2001-2013
</metadata>
<g transform="translate(0.000000,517.000000) scale(0.100000,-0.100000)"
fill="#000000" stroke="none">
<path d="M0 2585 l0 -2585 2585 0 2585 0 0 2585 0 2585 -2585 0 -2585 0 0
-2585z m2980 1807 c174 -32 282 -66 420 -135 l125 -62 3 -227 c1 -126 -1 -228
-6 -228 -4 0 -52 20 -107 44 -294 129 -603 186 -930 173 -456 -18 -768 -244
-919 -666 -71 -196 -90 -367 -83 -740 5 -324 21 -446 82 -627 58 -174 115
-273 219 -382 137 -143 300 -225 539 -268 129 -24 433 -24 582 0 201 32 403
95 567 177 43 22 82 39 88 39 7 0 10 -72 8 -217 l-3 -218 -133 -67 c-312 -158
-674 -227 -1045 -200 -277 21 -463 68 -672 172 -455 226 -723 666 -785 1292
-17 163 -8 660 14 793 130 794 608 1269 1372 1365 38 5 177 7 309 5 187 -2
265 -7 355 -23z m1210 -1557 l0 -235 -1165 0 -1165 0 0 235 0 235 1165 0 1165
0 0 -235z"/>
</g>
</svg>
