<?xml version="1.0" encoding="UTF-8" standalone="no"?>
<svg width="36px" height="40px" viewBox="0 0 36 40" version="1.1" xmlns="http://www.w3.org/2000/svg" xmlns:xlink="http://www.w3.org/1999/xlink">
    <!-- Generator: Sketch 3.8.3 (29802) - http://www.bohemiancoding.com/sketch -->
    <title>language_csharp</title>
    <desc>Created with Sketch.</desc>
    <defs></defs>
    <g id="Page-1" stroke="none" stroke-width="1" fill="none" fill-rule="evenodd">
        <g id="language_csharp" fill="#999999">
            <path d="M0,11.4670982 C0,10.5177994 0.672621359,9.35275081 1.49475728,8.8781014 L16.2554908,0.355987055 C17.0776268,-0.118662352 18.4229126,-0.118662352 19.2450054,0.355987055 L34.0057389,8.8781014 C34.8278749,9.35275081 35.5004962,10.5177994 35.5004962,11.4670982 L35.5004962,28.5113269 C35.5004962,29.4606257 34.8278749,30.6256742 34.0057389,31.1003236 L19.2450054,39.622438 C18.4229126,40.0970874 17.0776268,40.0970874 16.2554908,39.622438 L1.49475728,31.1003236 C0.672621359,30.6256742 0,29.4606257 0,28.5113269 L0,11.4670982 Z M28.0388781,17.1040345 L28.0388781,17.8562675 L27.2866451,17.8562675 L27.2866451,19.3688457 L28.0388781,19.3688457 L28.0388781,20.8733549 L27.2866451,20.8733549 L27.2866451,22.3859331 L28.0388781,22.3859331 L28.0388781,23.1381661 L29.5514563,23.1381661 L29.5514563,22.3859331 L31.0559223,22.3859331 L31.0559223,23.1381661 L32.5684574,23.1381661 L32.5684574,22.3859331 L33.3206904,22.3859331 L33.3206904,20.8733549 L32.5684574,20.8733549 L32.5684574,19.3688457 L33.3206904,19.3688457 L33.3206904,17.8562675 L32.5684574,17.8562675 L32.5684574,17.1040345 L31.0559223,17.1040345 L31.0559223,17.8562675 L29.5514563,17.8562675 L29.5514563,17.1040345 L28.0388781,17.1040345 Z M29.5,21.0045092 L31.004466,21.0045092 L31.004466,19.5 L29.5,19.5 L29.5,21.0045092 Z M16.9737648,8.19046386 L16.9737648,8.19874865 C15.410658,8.30809061 13.8781446,8.70334412 12.5412729,9.38778857 C7.89566343,11.766343 5.35283711,16.6400431 6.09467098,21.747055 C6.32548004,23.3347573 6.9629342,25.0266235 7.82563107,26.3413161 C7.99499461,26.5993528 8.14865156,26.8262783 8.16509169,26.8428047 C8.18179072,26.8593743 8.33393743,27.0540237 8.49674218,27.2714995 C8.90394822,27.8147141 9.93346278,28.8459547 10.5673786,29.3421791 C12.3516721,30.7386408 14.6976052,31.6352104 17.0220496,31.8091909 C17.5190076,31.8464725 19.0648975,31.7801942 19.5861057,31.7039482 C19.8396548,31.6666667 20.1470119,31.6157497 20.273657,31.5826537 C20.4002589,31.5495146 20.6510032,31.4882416 20.8317584,31.4451348 C22.9486516,30.9425674 25.1343258,29.6156203 26.7121036,27.8699892 C27.1344984,27.4027616 27.6999353,26.6569148 27.9334628,26.2522977 L28.1033441,25.9528803 L25.6525135,24.5373894 C24.3065372,23.7608198 23.1046386,23.1057174 23.1046386,23.1057174 C23.1046386,23.1057174 22.9069687,23.2382309 22.7729881,23.437411 C22.1218554,24.4044876 20.9846818,25.2620928 19.8449622,25.6456095 C19.0173894,25.9238835 18.8002589,25.9532686 17.8390076,25.9528803 C16.7753614,25.9521899 16.1940022,25.833657 15.3558145,25.4513916 C14.7297087,25.1660841 14.3240129,24.8879827 13.7057605,24.3109385 C12.6368069,23.3132686 11.9813592,21.9161597 11.8777562,20.4122546 C11.6785761,17.5204746 13.5303128,14.9701834 16.374973,14.2002589 C17.0660194,14.0122546 18.5806257,13.9886084 19.2221359,14.1588781 C19.7931392,14.3121036 20.4321036,14.564315 20.8560086,14.8059547 C21.5698382,15.2126429 22.453247,16.0444444 22.8377131,16.6663215 C22.9173247,16.7947357 23.0219633,16.893247 23.064164,16.8928587 C23.1064078,16.8924272 23.2878964,16.8091909 23.4688673,16.7068824 C23.8224811,16.5064509 27.5232362,14.3699245 27.731521,14.2560086 C27.9398058,14.1421359 28.1033441,14.0299029 28.1033441,14.0050485 C28.1033441,13.9802373 27.9430852,13.7114132 27.7393312,13.4065156 C26.2927724,11.2440992 24.0812945,9.5598274 21.6163538,8.74752967 C20.1371305,8.26019417 18.5366127,8.0800863 16.9735059,8.18938511 L16.9737648,8.19046386 Z" id="Combined-Shape"></path>
        </g>
    </g>
</svg>