<?xml version="1.0" encoding="UTF-8" standalone="no"?>
<svg width="35px" height="40px" viewBox="0 0 35 40" version="1.1" xmlns="http://www.w3.org/2000/svg" xmlns:xlink="http://www.w3.org/1999/xlink">
    <!-- Generator: Sketch 3.8.3 (29802) - http://www.bohemiancoding.com/sketch -->
    <title>language-nodejs</title>
    <desc>Created with Sketch.</desc>
    <defs></defs>
    <g id="Page-1" stroke="none" stroke-width="1" fill="none" fill-rule="evenodd">
        <g id="language-nodejs" fill="#999999">
            <path d="M17.5384615,39.1538462 C17.025641,39.1538462 16.5128205,39.0512821 16,38.8461538 L11.2820513,36.0769231 C10.7692308,35.7692308 10.6666667,35.5641026 11.0769231,35.4615385 C11.7948718,35.1538462 12.6153846,34.8461538 13.2307692,34.4358974 C13.3333333,34.3333333 13.4358974,34.4358974 13.5384615,34.5384615 L17.2307692,36.6923077 C17.4358974,36.7948718 17.5384615,36.7948718 17.6410256,36.6923077 L31.8974359,28.4871795 C32.1025641,28.3846154 32.2051282,28.2820513 32.2051282,28.1794872 L32.2051282,11.3589744 C32.2051282,11.1538462 32.1025641,11.0512821 31.8974359,11.0512821 L17.6410256,2.84615385 C17.4358974,2.74358974 17.3333333,2.74358974 17.2307692,2.84615385 L2.97435897,11.0512821 C2.76923077,11.1538462 2.66666667,11.2564103 2.66666667,11.3589744 L2.66666667,27.974359 C2.66666667,28.1794872 2.76923077,28.2820513 2.97435897,28.2820513 L6.87179487,30.5384615 C7.8974359,31.0512821 8.71794872,31.0512821 9.33333333,30.7435897 C9.94871795,30.4358974 10.2564103,29.8205128 10.2564103,29.2051282 L10.2564103,12.7948718 C10.2564103,12.4871795 10.3589744,12.3846154 10.5641026,12.3846154 L12.4102564,12.3846154 C12.7179487,12.3846154 12.8205128,12.4871795 12.8205128,12.7948718 L12.8205128,29.1025641 C12.8205128,30.5384615 12.4102564,31.5641026 11.6923077,32.3846154 C10.974359,33.1025641 9.94871795,33.5128205 8.61538462,33.5128205 C7.58974359,33.5128205 6.46153846,33.2051282 5.33333333,32.5897436 L1.53846154,30.4358974 C0.512820513,29.8205128 0,29 0,27.7692308 L0,11.3589744 C0,10.2307692 0.512820513,9.41025641 1.53846154,8.79487179 L16,0.384615385 C17.025641,-0.128205128 18.0512821,-0.128205128 19.0769231,0.384615385 L33.3333333,8.69230769 C34.3589744,9.30769231 34.8717949,10.1282051 34.8717949,11.2564103 L34.8717949,27.8717949 C34.8717949,29 34.3589744,29.9230769 33.3333333,30.5384615 L19.0769231,38.7435897 C18.6666667,38.9487179 18.1538462,39.1538462 17.5384615,39.1538462 L17.5384615,39.1538462 Z M14.3589744,22.4358974 C14.3589744,22.2307692 14.4615385,22.1282051 14.7692308,22.1282051 L16.6153846,22.1282051 C16.8205128,22.1282051 17.025641,22.2307692 17.025641,22.4358974 C17.2307692,23.4615385 17.6410256,24.1794872 18.2564103,24.5897436 C18.8717949,25 20.1025641,25.2051282 21.9487179,25.2051282 C24.8205128,25.2051282 26.2564103,24.4871795 26.2564103,22.9487179 C26.2564103,22.6410256 26.1538462,22.3333333 25.9487179,22.1282051 C25.7435897,21.9230769 25.3333333,21.7179487 24.5128205,21.5128205 C23.7948718,21.3076923 22.5641026,21.1025641 21.1282051,20.8974359 C18.974359,20.6923077 17.3333333,20.2820513 16.3076923,19.6666667 C15.2820513,19.0512821 14.7692308,18.025641 14.7692308,16.4871795 C14.7692308,15.0512821 15.3846154,13.9230769 16.5128205,13.2051282 C17.6410256,12.3846154 19.2820513,11.974359 21.3333333,11.974359 C25.8461538,11.974359 28.2051282,13.6153846 28.5128205,17 C28.5128205,17.1025641 28.5128205,17.2051282 28.4102564,17.3076923 C28.3076923,17.4102564 28.2051282,17.4102564 28.1025641,17.4102564 L26.2564103,17.4102564 C26.0512821,17.4102564 25.8461538,17.3076923 25.8461538,17.1025641 C25.6410256,16.0769231 25.1282051,15.4615385 24.5128205,15.0512821 C23.8974359,14.7435897 22.7692308,14.5384615 21.3333333,14.5384615 C18.8717949,14.5384615 17.6410256,15.1538462 17.6410256,16.4871795 C17.6410256,17.1025641 17.9487179,17.5128205 18.4615385,17.7179487 C18.974359,17.9230769 20.4102564,18.2307692 22.5641026,18.4358974 C24.9230769,18.7435897 26.6666667,19.2564103 27.5897436,19.8717949 C28.5128205,20.4871795 29.025641,21.5128205 29.025641,22.9487179 C29.025641,24.4871795 28.4102564,25.7179487 27.1794872,26.5384615 C25.9487179,27.4615385 24.2051282,27.8717949 21.9487179,27.8717949 C16.9230769,27.7692308 14.3589744,26.025641 14.3589744,22.4358974 L14.3589744,22.4358974 Z" id="Shape"></path>
        </g>
    </g>
</svg>