<?xml version="1.0" encoding="UTF-8" standalone="no"?>
<svg width="37px" height="40px" viewBox="0 0 37 40" version="1.1" xmlns="http://www.w3.org/2000/svg" xmlns:xlink="http://www.w3.org/1999/xlink">
    <!-- Generator: Sketch 3.8.3 (29802) - http://www.bohemiancoding.com/sketch -->
    <title>language-php</title>
    <desc>Created with Sketch.</desc>
    <defs></defs>
    <g id="Page-1" stroke="none" stroke-width="1" fill="none" fill-rule="evenodd">
        <g id="language-php" fill="#999999">
            <path d="M33.4358974,0.307692308 C34.1538462,0.307692308 34.8717949,0.615384615 35.3846154,1.12820513 C35.8974359,1.64102564 36.2051282,2.25641026 36.2051282,2.97435897 L36.2051282,3.07692308 L36.1025641,3.38461538 L33.1282051,30.5641026 C33.2307692,31.7948718 32.7179487,32.7179487 31.5897436,33.2307692 L19.6923077,38.974359 C19.2820513,39.1794872 18.8717949,39.2820513 18.4615385,39.2820513 C18.0512821,39.2820513 17.6410256,39.1794872 17.2307692,38.974359 L5.12820513,33.025641 C4.51282051,32.7179487 4.1025641,32.3076923 3.8974359,31.7948718 C3.69230769,31.4871795 3.48717949,31.1794872 3.48717949,30.7692308 L0.512820513,3.38461538 L0.307692308,3.07692308 L0.307692308,2.97435897 C0.307692308,2.25641026 0.615384615,1.64102564 1.23076923,1.12820513 C1.84615385,0.615384615 2.46153846,0.307692308 3.28205128,0.307692308 L33.4358974,0.307692308 L33.4358974,0.307692308 Z M5.43589744,23.0769231 L7.79487179,23.0769231 L8.30769231,20.4102564 L10.4615385,20.4102564 C11.5897436,20.5128205 12.7179487,20.1025641 13.5384615,19.1794872 C14.4615385,18.3589744 14.8717949,17.1282051 14.8717949,15.6923077 C14.8717949,13.9487179 13.8461538,13.025641 11.8974359,12.9230769 L7.38461538,12.9230769 L5.43589744,23.0769231 L5.43589744,23.0769231 Z M8.92307692,18.5641026 L9.53846154,14.7692308 L11.0769231,14.7692308 C12.1025641,14.7692308 12.6153846,15.1794872 12.6153846,15.8974359 C12.5128205,16.8205128 12.3076923,17.4358974 12,17.8461538 C11.5897436,18.1538462 11.0769231,18.4615385 10.4615385,18.5641026 L8.92307692,18.5641026 L8.92307692,18.5641026 Z M14.3589744,20.4102564 L16.7179487,20.4102564 L17.8461538,14.7692308 L19.6923077,14.7692308 C20.1025641,14.7692308 20.3076923,14.8717949 20.4102564,15.0769231 C20.5128205,15.2820513 20.5128205,15.4871795 20.4102564,15.7948718 L19.4871795,20.4102564 L22.0512821,20.4102564 L22.974359,15.2820513 C23.0769231,14.6666667 22.974359,14.0512821 22.5641026,13.6410256 C22.1538462,13.2307692 21.4358974,12.9230769 20.4102564,12.9230769 L18.2564103,12.9230769 L18.7692308,10.2564103 L16.4102564,10.2564103 L14.3589744,20.4102564 L14.3589744,20.4102564 Z M22.2564103,22.8717949 L24.6153846,22.8717949 L25.025641,20.3076923 L27.2820513,20.3076923 C28.4102564,20.4102564 29.4358974,20 30.3589744,19.0769231 C31.2820513,18.1538462 31.7948718,17.025641 31.7948718,15.6923077 C31.7948718,13.9487179 30.7692308,13.025641 28.8205128,12.9230769 L24.3076923,12.9230769 L22.2564103,22.8717949 L22.2564103,22.8717949 Z M25.5384615,18.4615385 L26.1538462,14.7692308 L27.6923077,14.7692308 C28.7179487,14.7692308 29.2307692,15.1794872 29.2307692,15.8974359 C29.1282051,16.8205128 28.9230769,17.4358974 28.6153846,17.8461538 C28.2051282,18.1538462 27.6923077,18.3589744 27.0769231,18.4615385 L25.5384615,18.4615385 L25.5384615,18.4615385 Z" id="Shape"></path>
        </g>
    </g>
</svg>