<?xml version="1.0" encoding="UTF-8" standalone="no"?>
<svg width="38px" height="40px" viewBox="0 0 38 40" version="1.1" xmlns="http://www.w3.org/2000/svg" xmlns:xlink="http://www.w3.org/1999/xlink">
    <!-- Generator: Sketch 3.8.3 (29802) - http://www.bohemiancoding.com/sketch -->
    <title>language-python</title>
    <desc>Created with Sketch.</desc>
    <defs></defs>
    <g id="Page-1" stroke="none" stroke-width="1" fill="none" fill-rule="evenodd">
        <g id="language-python">
            <path d="M19.0769231,0.717948718 C20.9230769,0.717948718 22.5641026,0.923076923 23.8974359,1.23076923 C25.1282051,1.64102564 26.0512821,2.05128205 26.6666667,2.56410256 C27.1794872,3.07692308 27.5897436,3.58974359 27.8974359,4.1025641 C28.2051282,4.61538462 28.3076923,5.02564103 28.3076923,5.33333333 L28.3076923,14.5641026 C28.3076923,16.1025641 27.8974359,17.2307692 27.0769231,18.1538462 C26.2564103,18.974359 25.4358974,19.4871795 24.6153846,19.5897436 L23.2820513,19.6923077 L14.2564103,19.6923077 C13.2307692,19.6923077 12.4102564,19.8974359 11.6923077,20.3076923 C10.974359,20.7179487 10.4615385,21.1282051 10.1538462,21.7435897 C9.84615385,22.2564103 9.53846154,22.8717949 9.43589744,23.3846154 C9.23076923,23.8974359 9.12820513,24.4102564 9.12820513,24.8205128 L9.12820513,30.0512821 L5.33333333,30.0512821 C5.12820513,30.0512821 4.71794872,29.8461538 4.1025641,29.5384615 C3.48717949,29.2307692 2.97435897,28.7179487 2.46153846,28.2051282 C1.94871795,27.5897436 1.53846154,26.6666667 1.23076923,25.2307692 C0.820512821,23.8974359 0.615384615,22.2564103 0.615384615,20.4102564 C0.615384615,18.5641026 0.820512821,16.9230769 1.23076923,15.5897436 C1.64102564,14.2564103 2.15384615,13.3333333 2.76923077,12.7179487 C3.38461538,12.2051282 4,11.6923077 4.61538462,11.4871795 C5.23076923,11.1794872 5.74358974,11.0769231 6.15384615,11.1794872 L19.4871795,11.1794872 L19.4871795,9.53846154 L10.4615385,9.53846154 L10.3589744,5.02564103 L10.3589744,4.61538462 C10.3589744,4.41025641 10.5641026,4.1025641 10.7692308,3.58974359 C10.8717949,3.07692308 11.2820513,2.66666667 11.7948718,2.25641026 C12.3076923,1.84615385 13.2307692,1.53846154 14.5641026,1.23076923 C15.7948718,0.923076923 17.2307692,0.717948718 19.0769231,0.717948718 L19.0769231,0.717948718 Z M15.1794872,4.20512821 C14.8717949,3.8974359 14.4615385,3.69230769 13.9487179,3.69230769 C13.4358974,3.69230769 13.1282051,3.8974359 12.7179487,4.20512821 C12.4102564,4.51282051 12.2051282,4.92307692 12.2051282,5.43589744 C12.2051282,5.94871795 12.4102564,6.25641026 12.7179487,6.66666667 C13.1282051,6.97435897 13.5384615,7.17948718 14.0512821,7.17948718 C14.5641026,7.17948718 14.8717949,6.97435897 15.2820513,6.66666667 C15.5897436,6.35897436 15.7948718,5.94871795 15.7948718,5.43589744 C15.6923077,5.02564103 15.5897436,4.61538462 15.1794872,4.20512821 L15.1794872,4.20512821 Z" id="Shape" fill="#999999"></path>
            <path d="M19.2820513,39.7948718 C17.4358974,39.7948718 15.8974359,39.5897436 14.5641026,39.2820513 C13.3333333,38.8717949 12.3076923,38.4615385 11.7948718,37.9487179 C11.2820513,37.4358974 10.7692308,36.9230769 10.5641026,36.4102564 C10.2564103,35.8974359 10.1538462,35.4871795 10.1538462,35.0769231 L10.2564103,34.5641026 L10.2564103,25.9487179 C10.2564103,24.4102564 10.6666667,23.1794872 11.4871795,22.3589744 C12.3076923,21.5384615 13.1282051,21.025641 14.0512821,21.025641 L15.2820513,20.8205128 L24.3076923,20.8205128 C25.3333333,20.8205128 26.1538462,20.6153846 26.8717949,20.2051282 C27.5897436,19.7948718 28.1025641,19.3846154 28.4102564,18.8717949 C28.7179487,18.3589744 29.025641,17.8461538 29.1282051,17.2307692 C29.3333333,16.7179487 29.4358974,16.2051282 29.4358974,15.7948718 L29.4358974,10.6666667 L33.2307692,10.6666667 C33.5384615,10.6666667 33.9487179,10.8717949 34.4615385,11.1794872 C35.0769231,11.4871795 35.5897436,12 36,12.6153846 C36.5128205,13.2307692 36.9230769,14.2564103 37.2307692,15.5897436 C37.6410256,16.9230769 37.8461538,18.5641026 37.8461538,20.4102564 C37.8461538,22.2564103 37.6410256,23.8974359 37.2307692,25.2307692 C36.8205128,26.5641026 36.3076923,27.4871795 35.6923077,28.1025641 C35.0769231,28.6153846 34.4615385,29.1282051 33.8461538,29.3333333 C33.2307692,29.6410256 32.7179487,29.7435897 32.3076923,29.7435897 L19.0769231,29.7435897 L19.0769231,31.0769231 L28.2051282,31.0769231 L28.2051282,36.1025641 C28.2051282,36.3076923 28.1025641,36.6153846 27.7948718,37.1282051 C27.4871795,37.6410256 27.0769231,38.0512821 26.5641026,38.4615385 C26.0512821,38.8717949 25.1282051,39.1794872 23.7948718,39.4871795 C22.6666667,39.5897436 21.1282051,39.7948718 19.2820513,39.7948718 L19.2820513,39.7948718 Z M23.1794872,36.3076923 C23.4871795,36.6153846 23.8974359,36.8205128 24.3076923,36.8205128 C24.7179487,36.8205128 25.1282051,36.6153846 25.4358974,36.3076923 C25.7435897,36 25.9487179,35.5897436 25.9487179,35.0769231 C25.9487179,34.5641026 25.7435897,34.1538462 25.4358974,33.8461538 C25.1282051,33.5384615 24.7179487,33.3333333 24.3076923,33.3333333 C23.8974359,33.3333333 23.4871795,33.5384615 23.1794872,33.8461538 C22.8717949,34.1538462 22.6666667,34.5641026 22.6666667,35.0769231 C22.7692308,35.5897436 22.8717949,36 23.1794872,36.3076923 Z" id="Combined-Shape" fill="#999999"></path>
        </g>
    </g>
</svg>