<?xml version="1.0" encoding="UTF-8" standalone="no"?>
<svg width="37px" height="37px" viewBox="0 0 37 37" version="1.1" xmlns="http://www.w3.org/2000/svg" xmlns:xlink="http://www.w3.org/1999/xlink">
    <!-- Generator: Sketch 3.8.3 (29802) - http://www.bohemiancoding.com/sketch -->
    <title>language-ruby</title>
    <desc>Created with Sketch.</desc>
    <defs></defs>
    <g id="Page-1" stroke="none" stroke-width="1" fill="none" fill-rule="evenodd">
        <g id="language-ruby" fill="#999999">
            <path d="M0.1,32.6 L1.3,21.5 L3.4,23.2 L0.2,33.2 L0.2,32.6 L0.1,32.6 Z M3.9,24.6 L8.9,34.7 L0.4,35.8 L3.9,24.6 L3.9,24.6 Z M9.5,35.8 L9.7,35.7 L33.6,36.7 L1.1,36.8 L9.5,35.8 L9.5,35.8 Z M18.6,8.9 L10.8,17.6 L3.8,22 L1.8,20.3 L4.6,15.1 L11.2,7.7 L17.6,3.2 L20.4,4 L18.6,8.9 L18.6,8.9 Z M8.8,32.2 L4.2,23 L10.7,18.8 L8.8,32.2 L8.8,32.2 Z M25.4,21.8 L9.7,34.2 L11.8,18.9 L25.4,21.8 L25.4,21.8 Z M26.2,22.7 L36,35.9 L10.8,34.9 L26.2,22.7 L26.2,22.7 Z M19.2,9.9 L25.1,20.9 L11.9,18 L19.2,9.9 L19.2,9.9 Z M29.5,0 L20.8,2.8 L19.2,2.4 L29.5,0 L29.5,0 Z M19.8,8.9 L21.7,3.9 L32.6,5.6 L19.8,8.9 L19.8,8.9 Z M20.3,9.9 L34.1,6.2 L26.2,21 L20.3,9.9 L20.3,9.9 Z M35.5,5.2 L23.9,3.1 L33.1,0.1 L35.5,5.2 L35.5,5.2 Z M26.9,22.1 L35.6,5.8 L37,35.7 L26.9,22.1 Z" id="Shape"></path>
        </g>
    </g>
</svg>